<svg fill="#000000" xmlns="http://www.w3.org/2000/svg"  viewBox="0 0 50 50" width="50px" height="50px"><path d="M 25 2 C 20.767365 2 17.04714 4.2088818 14.910156 7.5292969 C 8.5574101 7.8272523 3.4746094 13.075018 3.4746094 19.5 C 3.4746094 21.482686 3.9668098 23.350279 4.8222656 25 C 3.9668098 26.649721 3.4746094 28.517314 3.4746094 30.5 C 3.4746094 36.924982 8.5574101 42.172748 14.910156 42.470703 C 17.04714 45.791118 20.767365 48 25 48 C 29.232635 48 32.95286 45.791118 35.089844 42.470703 C 41.44259 42.172748 46.525391 36.924982 46.525391 30.5 C 46.525391 28.517314 46.03319 26.649721 45.177734 25 C 46.03319 23.350279 46.525391 21.482686 46.525391 19.5 C 46.525391 13.075018 41.44259 7.8272523 35.089844 7.5292969 C 32.95286 4.2088818 29.232635 2 25 2 z M 25 4 C 28.120304 4 30.900413 5.4204093 32.732422 7.6503906 C 29.591284 8.1247314 26.849448 9.8129476 25 12.230469 C 23.150552 9.8129476 20.408716 8.1247314 17.267578 7.6503906 C 19.099587 5.4204093 21.879696 4 25 4 z M 16.060547 9.5292969 C 18.940098 9.6957277 21.491302 11.061948 23.207031 13.150391 C 20.162398 13.610158 17.488163 15.205986 15.642578 17.505859 C 15.234692 16.413961 15 15.236519 15 14 C 15 12.389346 15.387931 10.875132 16.060547 9.5292969 z M 33.939453 9.5292969 C 34.612069 10.875132 35 12.389346 35 14 C 35 15.236519 34.765308 16.413961 34.357422 17.505859 C 32.511837 15.205986 29.837602 13.610158 26.792969 13.150391 C 28.508698 11.061948 31.059902 9.6957277 33.939453 9.5292969 z M 13.830078 9.6464844 C 13.301195 10.99815 13 12.46347 13 14 C 13 15.633431 13.331795 17.190522 13.925781 18.611328 C 10.779492 19.01987 8.0122265 20.644359 6.1171875 23.005859 C 5.7093015 21.913961 5.4746094 20.736519 5.4746094 19.5 C 5.4746094 14.526953 9.0834627 10.429353 13.830078 9.6464844 z M 36.169922 9.6464844 C 40.916537 10.429353 44.525391 14.526953 44.525391 19.5 C 44.525391 20.736519 44.290699 21.913961 43.882812 23.005859 C 41.987773 20.644359 39.220509 19.01987 36.074219 18.611328 C 36.668205 17.190522 37 15.633431 37 14 C 37 12.46347 36.698805 10.99815 36.169922 9.6464844 z M 23.355469 15.146484 C 22.826585 16.49815 22.525391 17.96347 22.525391 19.5 C 22.525391 19.965776 22.559396 20.422879 22.611328 20.875 C 21.070428 19.72942 19.248368 18.949508 17.267578 18.650391 C 18.769831 16.8218 20.913313 15.549274 23.355469 15.146484 z M 26.644531 15.146484 C 29.086687 15.549274 31.230169 16.8218 32.732422 18.650391 C 30.751632 18.949508 28.929572 19.72942 27.388672 20.875 C 27.440604 20.422879 27.474609 19.965776 27.474609 19.5 C 27.474609 17.96347 27.173415 16.49815 26.644531 15.146484 z M 13.830078 20.646484 C 13.301195 21.99815 13 23.46347 13 25 C 13 26.53653 13.301195 28.00185 13.830078 29.353516 C 11.026038 28.89104 8.6204946 27.276598 7.1210938 25 C 8.6204946 22.723402 11.026038 21.10896 13.830078 20.646484 z M 36.169922 20.646484 C 38.973962 21.10896 41.379505 22.723402 42.878906 25 C 41.379505 27.276598 38.973962 28.89104 36.169922 29.353516 C 36.698805 28.00185 37 26.53653 37 25 C 37 23.46347 36.698805 21.99815 36.169922 20.646484 z M 15.642578 21.494141 C 16.855166 23.005206 18.42282 24.215571 20.220703 25 C 18.42282 25.784429 16.855166 26.994794 15.642578 28.505859 C 15.234692 27.413961 15 26.236519 15 25 C 15 23.763481 15.234692 22.586039 15.642578 21.494141 z M 34.357422 21.494141 C 34.765308 22.586039 35 23.763481 35 25 C 35 26.236519 34.765308 27.413961 34.357422 28.505859 C 33.144834 26.994794 31.57718 25.784429 29.779297 25 C 31.57718 24.215571 33.144834 23.005206 34.357422 21.494141 z M 6.1171875 26.994141 C 8.0122265 29.355641 10.779492 30.98013 13.925781 31.388672 C 13.331795 32.809478 13 34.366569 13 36 C 13 37.53653 13.301195 39.00185 13.830078 40.353516 C 9.0834627 39.570647 5.4746094 35.473047 5.4746094 30.5 C 5.4746094 29.263481 5.7093015 28.086039 6.1171875 26.994141 z M 43.882812 26.994141 C 44.290699 28.086039 44.525391 29.263481 44.525391 30.5 C 44.525391 35.473047 40.916537 39.570647 36.169922 40.353516 C 36.698805 39.00185 37 37.53653 37 36 C 37 34.366569 36.668205 32.809478 36.074219 31.388672 C 39.220509 30.98013 41.987773 29.355641 43.882812 26.994141 z M 22.611328 29.125 C 22.559396 29.577121 22.525391 30.034224 22.525391 30.5 C 22.525391 32.03653 22.826585 33.50185 23.355469 34.853516 C 20.913313 34.450726 18.769831 33.1782 17.267578 31.349609 C 19.248368 31.050492 21.070428 30.27058 22.611328 29.125 z M 27.388672 29.125 C 28.929572 30.27058 30.751632 31.050492 32.732422 31.349609 C 31.230169 33.1782 29.086687 34.450726 26.644531 34.853516 C 27.173415 33.50185 27.474609 32.03653 27.474609 30.5 C 27.474609 30.034224 27.440604 29.577121 27.388672 29.125 z M 15.642578 32.494141 C 17.488163 34.794014 20.162398 36.389842 23.207031 36.849609 C 21.491302 38.938052 18.940098 40.304272 16.060547 40.470703 C 15.387931 39.124868 15 37.610654 15 36 C 15 34.763481 15.234692 33.586039 15.642578 32.494141 z M 34.357422 32.494141 C 34.765308 33.586039 35 34.763481 35 36 C 35 37.610654 34.612069 39.124868 33.939453 40.470703 C 31.059902 40.304272 28.508698 38.938052 26.792969 36.849609 C 29.837602 36.389842 32.511837 34.794014 34.357422 32.494141 z M 25 37.769531 C 26.849448 40.187052 29.591284 41.875269 32.732422 42.349609 C 30.900413 44.579591 28.120304 46 25 46 C 21.879696 46 19.099587 44.579591 17.267578 42.349609 C 20.408716 41.875269 23.150552 40.187052 25 37.769531 z"/></svg>